<svg width="40" height="40" viewBox="0 0 40 40" fill="none" xmlns="http://www.w3.org/2000/svg">
<rect width="40" height="40" rx="20" fill="#404142"/>
<path d="M21.8915 15.0581C22.6382 15.2038 23.3245 15.569 23.8625 16.107C24.4004 16.6449 24.7656 17.3312 24.9113 18.0779M21.8915 12C23.4429 12.1724 24.8896 12.8671 25.9941 13.9702C27.0985 15.0733 27.7951 16.5191 27.9694 18.0703M27.2049 24.1712V26.4648C27.2058 26.6777 27.1621 26.8884 27.0768 27.0835C26.9915 27.2786 26.8664 27.4537 26.7095 27.5977C26.5526 27.7416 26.3674 27.8512 26.1657 27.9194C25.964 27.9876 25.7503 28.013 25.5382 27.9938C23.1857 27.7382 20.9259 26.9343 18.9404 25.6467C17.0932 24.4729 15.5271 22.9068 14.3533 21.0596C13.0612 19.0651 12.2572 16.7943 12.0062 14.4312C11.9871 14.2198 12.0122 14.0067 12.08 13.8055C12.1477 13.6043 12.2566 13.4195 12.3998 13.2627C12.5429 13.1059 12.7171 12.9807 12.9112 12.8949C13.1054 12.8091 13.3153 12.7647 13.5276 12.7645H15.8212C16.1922 12.7609 16.5519 12.8923 16.8332 13.1342C17.1145 13.3761 17.2983 13.7121 17.3502 14.0795C17.447 14.8135 17.6265 15.5342 17.8854 16.2278C17.9882 16.5014 18.0105 16.7988 17.9495 17.0847C17.8886 17.3706 17.7469 17.6331 17.5413 17.8409L16.5704 18.8119C17.6587 20.7259 19.2435 22.3107 21.1575 23.399L22.1285 22.4281C22.3363 22.2225 22.5988 22.0809 22.8847 22.0199C23.1706 21.9589 23.468 21.9812 23.7416 22.084C24.4352 22.3429 25.1559 22.5224 25.8899 22.6192C26.2613 22.6716 26.6005 22.8587 26.8429 23.1448C27.0854 23.431 27.2142 23.7962 27.2049 24.1712Z" stroke="white" stroke-width="1.52904" stroke-linecap="round" stroke-linejoin="round"/>
</svg>
